<?xml version="1.0" standalone="no"?>
<!DOCTYPE svg PUBLIC "-//W3C//DTD SVG 20010904//EN"
 "http://www.w3.org/TR/2001/REC-SVG-20010904/DTD/svg10.dtd">
<svg version="1.0" xmlns="http://www.w3.org/2000/svg"
 width="200.000000pt" height="200.000000pt" viewBox="0 0 200.000000 200.000000"
 preserveAspectRatio="xMidYMid meet">

<g transform="translate(0.000000,200.000000) scale(0.100000,-0.100000)"
fill="#000000" stroke="none">
<path d="M930 1925 c-8 -2 -41 -7 -72 -10 -48 -5 -56 -9 -51 -23 3 -9 3 -14
-1 -10 -5 4 -20 2 -35 -3 -24 -9 -25 -8 -7 6 23 17 18 19 -19 5 -17 -6 -24
-14 -19 -22 6 -10 4 -10 -8 0 -11 9 -22 10 -39 2 -23 -10 -23 -10 -1 -6 12 2
20 0 16 -5 -3 -5 -21 -9 -40 -9 -25 0 -34 -4 -35 -17 0 -10 -3 -13 -5 -6 -7
17 -95 -28 -89 -45 3 -7 0 -10 -5 -7 -9 6 -70 -21 -70 -31 0 -2 13 2 30 11 16
9 30 13 30 11 0 -9 -43 -29 -65 -30 -11 -1 -20 -8 -20 -17 0 -9 -29 -42 -65
-75 -35 -32 -60 -53 -55 -45 6 10 4 12 -4 7 -7 -5 -10 -14 -7 -21 2 -7 -3 -12
-12 -11 -10 1 -17 -7 -17 -19 0 -11 -6 -20 -13 -20 -7 0 -21 -15 -32 -32 -11
-18 -15 -33 -10 -33 6 0 10 4 10 8 0 5 7 17 16 28 10 12 8 6 -4 -16 -10 -19
-24 -34 -30 -33 -5 1 -13 -4 -16 -13 -3 -8 -1 -12 4 -9 5 3 7 -1 4 -9 -3 -9
-11 -14 -16 -13 -6 1 -13 -4 -16 -12 -3 -9 0 -11 8 -6 10 6 12 4 7 -9 -4 -10
-7 -20 -7 -22 0 -2 -5 -4 -11 -4 -5 0 -7 6 -3 13 5 9 4 9 -5 1 -7 -6 -13 -25
-13 -42 -1 -17 -5 -29 -11 -25 -5 3 -6 -3 -2 -17 5 -15 4 -20 -4 -16 -7 5 -9
-4 -6 -26 4 -26 3 -29 -4 -13 -9 19 -10 19 -10 -2 -1 -12 -4 -30 -7 -40 -5
-15 -4 -16 6 -3 10 13 11 12 6 -3 -3 -10 -6 -25 -6 -33 0 -9 -4 -13 -9 -10 -5
4 -7 -19 -5 -52 3 -42 2 -52 -6 -37 -8 17 -9 15 -5 -10 3 -16 7 -63 10 -102 2
-40 6 -76 8 -80 2 -5 5 -25 5 -47 1 -21 6 -44 13 -52 6 -7 8 -18 4 -24 -3 -5
-1 -10 4 -10 6 0 11 -8 11 -17 0 -10 11 -42 25 -70 13 -29 20 -53 15 -53 -5 0
2 -12 16 -27 14 -15 28 -40 31 -56 3 -15 14 -32 25 -38 12 -7 17 -17 13 -29
-5 -16 8 -34 26 -35 12 0 38 -33 31 -40 -4 -5 -2 -5 4 -2 7 4 25 -8 41 -26 16
-17 50 -48 75 -67 26 -19 48 -42 48 -50 0 -10 3 -11 8 -4 5 7 18 3 39 -12 18
-12 29 -25 25 -29 -4 -5 -2 -5 4 -2 6 4 34 -5 63 -18 28 -14 57 -25 63 -25 9
0 8 -4 -2 -10 -11 -8 -7 -9 14 -4 23 5 27 4 21 -6 -6 -10 -4 -12 8 -7 9 3 18
1 21 -6 3 -9 5 -8 5 1 1 10 6 10 24 1 12 -7 31 -13 42 -14 11 -1 35 -2 53 -3
18 -1 31 -6 28 -10 -6 -11 133 -5 239 10 44 6 92 11 107 12 14 1 24 3 22 5 -2
2 20 13 49 23 28 10 59 21 67 25 8 3 22 5 31 4 9 -1 19 5 23 14 3 9 10 13 16
10 5 -3 10 1 10 10 0 11 5 15 14 12 8 -3 17 1 20 9 3 8 15 14 26 14 11 0 20 5
20 11 0 5 5 7 11 3 7 -4 10 -1 7 7 -5 15 39 55 49 45 8 -8 43 24 43 39 0 7 10
20 23 31 l22 19 -19 -22 c-11 -13 -14 -23 -8 -23 6 0 16 13 23 29 7 16 17 27
22 24 4 -3 7 1 5 9 -4 18 40 78 57 78 8 0 17 4 20 10 4 6 -1 7 -12 3 -16 -6
-16 -5 -4 10 7 9 17 15 21 12 5 -3 6 5 3 17 -4 18 -2 20 5 9 11 -15 18 -3 70
120 25 58 39 121 22 99 -9 -12 -10 -10 -4 10 4 14 7 30 7 37 0 7 5 11 11 10 6
-1 12 8 14 21 2 12 -1 22 -7 22 -6 0 -11 4 -11 10 0 5 8 6 17 3 13 -5 15 -3 8
13 -4 10 -9 35 -11 54 -3 35 -3 35 5 5 15 -54 12 133 -3 220 -15 81 -54 203
-56 175 0 -8 -12 5 -25 30 -26 48 -34 82 -10 40 17 -29 19 -22 5 15 -6 16 -14
23 -22 19 -7 -4 -8 -3 -4 4 11 18 -22 72 -39 66 -11 -5 -13 -2 -9 9 3 9 -1 26
-10 39 -18 26 -21 17 -5 -15 11 -21 10 -21 -6 -5 -10 9 -19 26 -20 37 -1 23
-34 63 -45 56 -4 -2 -20 10 -36 27 -16 17 -22 27 -14 23 8 -5 4 4 -10 19 -31
34 -87 69 -99 62 -10 -7 -34 18 -25 27 10 10 -117 69 -137 64 -11 -3 -17 -1
-13 4 11 19 -150 63 -194 53 -21 -4 -24 -3 -12 5 12 9 9 11 -15 11 -23 0 -26
-3 -15 -10 12 -7 10 -9 -7 -7 -12 0 -21 6 -20 12 2 9 -119 17 -153 10z m135
-13 c-6 -7 -97 -3 -104 4 -3 3 21 4 52 3 32 -1 55 -4 52 -7z m-152 -9 c-7 -2
-19 -2 -25 0 -7 3 -2 5 12 5 14 0 19 -2 13 -5z m308 -21 c-7 -2 -18 1 -23 6
-8 8 -4 9 13 5 13 -4 18 -8 10 -11z m63 -11 c3 -4 -6 -6 -19 -3 -14 2 -25 6
-25 8 0 8 39 4 44 -5z m-178 -28 c-7 -7 -26 7 -26 19 0 6 6 6 15 -2 9 -7 13
-15 11 -17z m314 -23 c19 -11 31 -19 25 -19 -5 0 -26 8 -45 19 -19 11 -30 19
-25 19 6 0 26 -8 45 -19z m-413 -52 c2 -56 -12 -82 -19 -35 -2 14 -10 22 -23
22 -13 0 -21 -8 -23 -22 -7 -47 -22 -21 -22 38 l0 60 43 -3 42 -3 2 -57z m121
-3 c13 -61 9 -81 -12 -52 -15 20 -52 23 -59 5 -2 -7 -8 -9 -13 -5 -11 11 44
119 59 114 6 -2 18 -30 25 -62z m-544 40 c-10 -8 -23 -15 -28 -15 -6 0 -1 7
10 15 10 8 23 15 28 15 6 0 1 -7 -10 -15z m296 5 c0 -5 -7 -10 -16 -10 -13 0
-15 -7 -9 -42 4 -24 8 -45 9 -48 0 -3 -3 -6 -9 -8 -5 -2 -14 17 -19 42 -7 35
-14 46 -28 46 -26 0 -22 18 5 23 42 8 67 7 67 -3z m420 -33 l25 -10 -24 -6
c-18 -5 -27 -17 -35 -45 -6 -22 -17 -41 -25 -44 -11 -4 -12 1 -7 19 16 54 18
89 7 89 -6 0 -11 5 -11 11 0 10 19 7 70 -14z m175 13 c3 -5 1 -10 -4 -10 -6 0
-11 5 -11 10 0 6 2 10 4 10 3 0 8 -4 11 -10z m-876 -32 c-1 -18 -2 -19 -6 -5
-2 9 -9 15 -14 12 -5 -4 -9 -1 -9 4 0 6 7 11 15 11 9 0 15 -9 14 -22z m124
-20 c8 -24 18 -51 22 -60 5 -12 3 -18 -7 -18 -15 0 -51 97 -42 112 9 13 11 10
27 -34z m701 17 c3 -8 1 -15 -4 -15 -6 0 -10 5 -10 11 0 5 -4 7 -10 4 -5 -3
-10 -1 -10 4 0 17 27 13 34 -4z m164 -45 c36 -34 25 -34 -18 1 -22 18 -40 34
-40 36 0 7 35 -15 58 -37z m-884 -62 c-3 -5 -14 -6 -23 -3 -26 8 -52 -4 -49
-23 2 -8 -2 -17 -8 -19 -15 -5 -36 119 -21 129 12 8 108 -72 101 -84z m698 45
c-2 -22 -7 -53 -11 -69 l-8 -29 -11 26 c-12 30 -35 42 -51 26 -6 -6 -14 -7
-18 -4 -9 10 78 98 92 94 5 -2 9 -22 7 -44z m-838 -57 c25 -30 33 -47 25 -52
-7 -4 -18 1 -25 11 -7 10 -20 15 -29 12 -18 -7 -20 -28 -3 -45 6 -6 8 -15 4
-19 -4 -5 -25 12 -47 37 -25 29 -35 48 -29 54 6 6 15 3 24 -10 14 -18 16 -18
32 -2 14 14 16 21 6 30 -7 7 -12 16 -12 20 0 19 20 5 54 -36z m931 -3 l-7 -48
25 30 c14 17 28 27 32 23 8 -8 -1 -25 -37 -67 -39 -45 -50 -40 -43 17 l6 47
-25 -27 c-48 -53 -51 -25 -3 32 45 55 60 53 52 -7z m-565 27 c0 -5 -7 -7 -15
-4 -8 4 -15 8 -15 10 0 2 7 4 15 4 8 0 15 -4 15 -10z m132 3 c-20 -4 -20 -6
-7 -19 8 -9 15 -27 15 -42 0 -25 1 -25 15 -6 13 17 13 15 0 -18 -8 -21 -14
-41 -13 -45 1 -5 -3 -17 -9 -28 -16 -30 -10 -158 8 -163 11 -3 11 -2 -1 7 -10
7 -11 11 -3 11 7 0 18 -9 25 -20 8 -12 23 -20 38 -19 24 0 24 1 4 9 -12 5 -26
15 -30 22 -6 10 -4 10 9 -1 14 -11 17 -11 17 0 0 11 2 11 9 1 5 -8 26 -12 57
-11 27 0 60 -1 74 -4 14 -2 17 -2 8 0 -10 2 -18 9 -18 14 0 6 3 9 8 7 48 -23
62 -33 62 -45 0 -8 11 -13 28 -12 15 1 20 3 12 5 -19 5 -45 44 -30 44 5 0 10
-5 10 -11 0 -5 5 -7 10 -4 6 3 10 1 10 -4 0 -6 9 -10 20 -8 25 4 38 17 17 17
-9 0 -18 4 -21 9 -4 5 3 7 15 4 11 -3 23 -12 26 -19 7 -20 23 -17 24 4 0 10 3
12 6 5 2 -7 12 -13 21 -13 21 -1 52 -23 52 -39 0 -14 -1 -14 -39 5 -19 10 -38
13 -49 8 -13 -6 -7 -9 20 -12 23 -2 43 -11 52 -23 13 -20 14 -20 19 2 5 19 8
20 21 9 9 -7 16 -17 16 -23 0 -6 -6 -2 -14 8 -13 18 -14 18 -9 -9 4 -19 2 -27
-5 -22 -6 3 -14 1 -18 -5 -4 -8 -3 -9 4 -5 7 4 12 1 12 -7 0 -27 -45 -39 -126
-34 -47 3 -72 2 -63 -4 11 -7 9 -9 -8 -9 -13 0 -23 5 -23 10 0 15 -30 12 -31
-2 0 -9 -2 -9 -6 1 -5 11 -7 11 -14 0 -6 -10 -11 -11 -16 -3 -5 6 -53 14 -107
18 -55 4 -106 12 -114 18 -11 10 -17 8 -27 -5 -18 -25 -84 -42 -99 -26 -8 9
-6 11 10 7 14 -4 32 3 50 18 33 26 22 31 -26 10 -23 -9 -44 -11 -69 -5 -49 12
-160 11 -142 0 9 -6 -2 -8 -32 -8 -51 2 -63 14 -20 19 23 2 29 9 34 38 10 61
46 108 90 120 22 6 43 9 47 7 15 -9 47 11 53 34 7 24 7 24 8 2 1 -16 7 -23 21
-23 22 0 37 -25 34 -57 -1 -20 3 -23 37 -23 22 0 39 5 39 11 0 6 -7 9 -15 5
-8 -3 -15 -1 -15 4 0 6 5 10 11 10 7 0 10 14 7 35 -2 19 0 35 4 35 4 0 8 20 8
44 0 24 6 56 14 70 18 35 6 90 -25 117 l-22 19 39 -1 c23 -1 30 -3 16 -6z m53
-4 c11 -16 1 -19 -13 -3 -7 8 -8 14 -3 14 5 0 13 -5 16 -11z m-225 -9 c8 -5
11 -10 5 -10 -5 0 -17 5 -25 10 -8 5 -10 10 -5 10 6 0 17 -5 25 -10z m311 -6
c4 -2 9 -13 12 -24 3 -12 1 -18 -5 -14 -5 3 -22 10 -36 15 l-27 9 28 -4 c33
-4 27 5 -16 21 l-32 13 35 -6 c19 -4 38 -8 41 -10z m-366 -4 c-11 -5 -31 -8
-45 -8 -23 0 -22 1 5 8 42 11 65 11 40 0z m-55 -33 c0 -8 -4 -7 -12 1 -8 8
-19 8 -45 -3 -18 -8 -33 -12 -33 -9 0 3 14 11 32 18 34 15 58 11 58 -7z m380
-5 c3 -2 -5 -2 -16 2 -18 5 -24 1 -32 -23 -6 -16 -7 -33 -4 -37 4 -4 2 -4 -4
-1 -8 5 -8 17 -1 46 10 36 13 39 31 29 12 -6 23 -13 26 -16z m90 18 c0 -5 -7
-7 -15 -4 -8 4 -15 8 -15 10 0 2 7 4 15 4 8 0 15 -4 15 -10z m-400 -14 c0 -2
-9 -6 -20 -9 -11 -3 -18 -1 -14 4 5 9 34 13 34 5z m-170 -26 c0 -5 -11 -12
-25 -16 -22 -5 -24 -9 -13 -23 12 -14 11 -15 -5 -2 -9 8 -15 16 -12 19 4 4 44
28 53 31 1 1 2 -3 2 -9z m170 0 c-8 -5 -19 -10 -25 -10 -5 0 -3 5 5 10 8 5 20
10 25 10 6 0 3 -5 -5 -10z m490 0 c13 -8 13 -10 -2 -10 -9 0 -20 5 -23 10 -8
13 5 13 25 0z m-645 -26 c-9 -9 -19 -13 -23 -10 -3 4 0 11 8 16 24 15 33 11
15 -6z m720 -18 c11 -8 15 -16 9 -16 -6 0 -17 7 -24 15 -7 9 -18 14 -25 11 -6
-2 -12 2 -12 9 0 15 15 9 52 -19z m-628 6 c8 -5 4 -14 -13 -29 l-25 -23 6 23
c6 20 5 21 -8 5 -17 -22 -28 -23 -21 -3 4 10 0 15 -11 15 -9 0 -13 5 -10 10 7
12 65 13 82 2z m-167 -6 c0 -2 -9 -6 -20 -9 -11 -3 -18 -1 -14 4 5 9 34 13 34
5z m240 -26 c0 -5 -7 -10 -16 -10 -8 0 -12 5 -9 10 3 6 10 10 16 10 5 0 9 -4
9 -10z m-303 -32 c2 -16 0 -19 -6 -9 -7 10 -12 8 -24 -10 -9 -12 -20 -20 -23
-16 -6 5 39 57 49 57 2 0 4 -10 4 -22z m550 0 c-3 -8 -6 -5 -6 6 -1 11 2 17 5
13 3 -3 4 -12 1 -19z m382 -6 c26 -23 28 -28 12 -28 -11 0 -18 3 -16 7 7 10
-31 40 -40 32 -4 -5 -5 -2 -1 5 10 16 10 16 45 -16z m304 8 c3 -11 1 -18 -4
-14 -5 3 -9 12 -9 20 0 20 7 17 13 -6z m-716 -12 c-3 -8 -6 -5 -6 6 -1 11 2
17 5 13 3 -3 4 -12 1 -19z m-579 -49 c-10 -7 -10 -9 2 -9 13 0 13 -1 0 -10
-10 -6 -18 -5 -25 2 -7 7 -6 12 3 15 6 3 10 9 7 14 -4 5 1 6 10 2 13 -5 14 -7
3 -14z m67 11 c-3 -5 -12 -10 -18 -10 -7 0 -6 4 3 10 19 12 23 12 15 0z m75 6
c0 -9 -39 -13 -51 -5 -10 6 -4 9 19 9 17 0 32 -2 32 -4z m919 -50 c7 -8 8 -17
3 -20 -6 -3 -12 3 -15 14 -6 24 -4 25 12 6z m42 -71 c7 -13 3 -12 -10 5 -11
14 -21 30 -21 35 0 11 14 -7 31 -40z m-931 11 c0 -8 -4 -18 -10 -21 -5 -3 -10
3 -10 14 0 12 5 21 10 21 6 0 10 -6 10 -14z m915 -26 c3 -5 1 -10 -4 -10 -6 0
-11 5 -11 10 0 6 2 10 4 10 3 0 8 -4 11 -10z m-1194 -28 c-6 -11 -8 -28 -4
-38 5 -13 3 -15 -7 -9 -10 6 -12 4 -7 -8 3 -10 2 -17 -3 -17 -5 0 -6 -7 -3
-17 4 -11 3 -14 -5 -9 -7 4 -12 12 -12 17 0 16 42 110 47 105 3 -2 0 -13 -6
-24z m79 -8 c0 -21 -17 -17 -23 5 -3 14 -1 18 9 14 8 -3 14 -11 14 -19z m1165
-11 c9 -20 13 -41 11 -47 -2 -6 -5 -3 -5 6 -1 9 -7 23 -13 30 -12 12 -21 48
-12 48 2 0 11 -17 19 -37z m-1005 18 c0 -16 -31 -22 -81 -15 -70 9 -60 24 16
24 36 0 65 -4 65 -9z m-120 -31 c0 -5 -4 -10 -9 -10 -6 0 -13 5 -16 10 -3 6 1
10 9 10 9 0 16 -4 16 -10z m1387 -22 c-3 -7 -5 -2 -5 12 0 14 2 19 5 13 2 -7
2 -19 0 -25z m-1292 12 c3 -6 -4 -10 -17 -10 -18 0 -20 2 -8 10 19 12 18 12
25 0z m993 -14 c-7 -8 -15 -12 -17 -11 -5 6 10 25 20 25 5 0 4 -6 -3 -14z
m-811 -12 c-3 -3 -12 -4 -19 -1 -8 3 -5 6 6 6 11 1 17 -2 13 -5z m-394 -19
c-3 -9 -8 -14 -10 -11 -3 3 -2 9 2 15 9 16 15 13 8 -4z m64 -11 c-3 -4 -14 -3
-24 0 -15 6 -15 8 -3 16 16 10 39 -4 27 -16z m391 19 c-10 -2 -26 -2 -35 0
-10 3 -2 5 17 5 19 0 27 -2 18 -5z m1059 -15 c-3 -8 -6 -5 -6 6 -1 11 2 17 5
13 3 -3 4 -12 1 -19z m-1412 2 c3 -5 1 -10 -4 -10 -6 0 -11 5 -11 10 0 6 2 10
4 10 3 0 8 -4 11 -10z m60 0 c3 -5 1 -10 -4 -10 -6 0 -11 5 -11 10 0 6 2 10 4
10 3 0 8 -4 11 -10z m330 0 c-3 -5 -16 -10 -28 -9 -20 1 -20 2 3 9 14 4 26 8
28 9 2 1 0 -3 -3 -9z m801 -140 c9 -105 -29 -310 -57 -310 -5 0 -9 4 -9 9 0 5
-57 9 -127 9 -81 0 -119 -3 -103 -8 22 -7 20 -8 -15 -9 -29 0 -36 2 -25 9 11
7 5 10 -22 10 -21 0 -38 -4 -38 -10 0 -5 -7 -10 -16 -10 -8 0 -12 5 -9 10 3 6
-1 10 -9 10 -8 0 -18 -4 -21 -10 -3 -5 -18 -10 -33 -9 l-27 1 25 9 c22 7 21 8
-10 5 -19 -2 -44 -7 -54 -11 -15 -6 -17 -5 -11 5 6 9 4 11 -4 6 -7 -5 -10 -14
-7 -22 3 -8 0 -11 -10 -7 -8 3 -13 12 -10 19 4 11 -9 14 -59 14 -37 0 -65 -4
-65 -10 0 -5 -5 -10 -11 -10 -5 0 -7 5 -4 10 10 15 -71 12 -84 -3 -6 -8 -8
-17 -4 -20 3 -4 1 -7 -5 -7 -15 0 -15 13 0 28 10 10 -38 12 -230 11 -200 -2
-244 -5 -251 -16 -5 -10 -15 8 -32 59 -20 60 -24 94 -24 188 0 63 3 131 7 150
l8 35 655 -3 c620 -2 655 -1 656 15 1 42 29 -66 35 -137z m243 -9 c1 -82 -6
-57 -12 44 -3 61 -2 77 3 50 5 -22 9 -64 9 -94z m-1654 -148 c5 -43 4 -59 -7
-67 -7 -6 -12 -21 -10 -33 4 -24 -14 -37 -67 -48 -45 -10 -38 14 9 29 45 14
36 32 -12 28 -53 -3 -47 14 10 30 35 10 48 19 50 35 3 20 0 21 -57 16 -79 -7
-82 12 -3 24 45 6 57 12 56 26 -1 9 4 17 11 17 8 0 15 -21 20 -57z m1485 37
c0 -20 16 -27 74 -32 16 -2 32 -9 34 -17 4 -11 -6 -12 -52 -7 -47 6 -57 5 -62
-9 -8 -19 24 -47 44 -40 7 3 23 0 34 -6 17 -9 19 -18 15 -51 -3 -22 -8 -42
-11 -45 -3 -3 -35 2 -71 12 -56 15 -65 20 -60 36 3 11 8 28 11 39 3 11 10 20
15 20 6 0 7 9 4 20 -8 26 4 100 16 100 5 0 9 -9 9 -20z m-1317 -187 c-7 -2
-21 -2 -30 0 -10 3 -4 5 12 5 17 0 24 -2 18 -5z m170 0 c-7 -2 -19 -2 -25 0
-7 3 -2 5 12 5 14 0 19 -2 13 -5z m34 -12 c0 -11 -5 -18 -9 -15 -4 3 -5 11 -1
19 7 21 12 19 10 -4z m81 12 c-10 -2 -28 -2 -40 0 -13 2 -5 4 17 4 22 1 32 -1
23 -4z m83 -2 c-7 -5 -10 -14 -7 -20 4 -6 5 -11 2 -11 -3 0 -10 9 -16 20 -9
17 -8 20 12 20 17 0 19 -3 9 -9z m237 2 c-10 -2 -26 -2 -35 0 -10 3 -2 5 17 5
19 0 27 -2 18 -5z m-770 -15 c30 -30 -3 -88 -50 -88 -22 0 -48 37 -41 59 13
37 66 54 91 29z m40 -1 c7 -8 7 -18 2 -27 -6 -8 -10 -12 -11 -7 -1 4 -2 10 -3
15 -1 4 -5 13 -9 20 -11 16 7 16 21 -1z m1564 -29 c-6 -6 -7 0 -4 19 5 21 7
23 10 9 2 -10 0 -22 -6 -28z m-1488 19 c-2 -7 4 -22 16 -32 11 -10 20 -23 20
-28 0 -6 -11 3 -25 19 -27 31 -29 37 -18 47 10 11 13 8 7 -6z m99 -2 c-3 -9
-8 -14 -10 -11 -3 3 -2 9 2 15 9 16 15 13 8 -4z m537 5 c-13 -8 -12 -10 3 -10
10 0 15 -5 12 -10 -5 -8 -11 -7 -21 1 -8 6 -14 8 -14 5 0 -4 -5 -4 -12 0 -8 5
-6 10 8 15 27 11 42 10 24 -1z m285 0 c3 -6 -1 -7 -9 -4 -18 7 -21 14 -7 14 6
0 13 -4 16 -10z m89 1 c18 -7 18 -8 3 -14 -9 -3 -17 -2 -17 3 0 5 -8 11 -17
13 -12 3 -13 5 -3 5 8 0 24 -3 34 -7z m91 -27 c-4 -26 -2 -39 7 -45 11 -7 10
-11 -2 -19 -12 -7 -12 -10 -1 -10 7 0 11 -6 7 -15 -7 -19 10 -20 21 -1 7 12
10 11 23 -2 13 -14 12 -15 -4 -9 -14 6 -17 4 -12 -8 3 -9 2 -13 -4 -10 -9 6
-15 -8 -11 -29 1 -5 -5 -6 -14 -2 -9 3 -13 2 -10 -4 10 -16 -6 -34 -16 -19 -8
12 -10 12 -18 0 -5 -8 -7 -20 -5 -26 3 -7 -6 -19 -20 -28 -18 -12 -26 -13 -29
-4 -3 9 -8 9 -20 -2 -10 -7 -17 -9 -17 -3 0 13 26 23 45 16 8 -4 15 -1 15 6 0
6 4 9 9 6 5 -3 9 6 9 19 0 15 -6 25 -14 25 -8 0 -14 -5 -14 -11 0 -8 -12 -9
-37 -4 -77 15 -93 15 -93 0 0 -27 -35 -16 -49 16 l-13 30 -21 -21 c-16 -18
-17 -24 -6 -31 10 -6 10 -9 2 -9 -16 0 -53 36 -45 44 3 4 -3 13 -14 21 -16 12
-16 14 -3 15 9 0 19 9 22 21 4 16 2 20 -12 16 -10 -2 -23 3 -30 14 -6 11 -7
19 -2 19 5 0 12 -6 14 -12 3 -8 6 -6 6 5 1 9 8 17 16 17 8 0 15 7 15 16 0 11
6 15 20 11 11 -3 23 -1 26 4 3 5 -11 9 -31 9 -20 0 -34 4 -31 9 7 10 56 2 74
-12 10 -8 9 -13 -3 -27 -11 -12 -13 -20 -6 -25 6 -3 11 1 11 10 0 8 11 21 25
27 20 9 28 8 43 -5 14 -13 21 -14 30 -5 7 7 24 12 40 13 21 0 30 -7 43 -35
l15 -35 12 34 c10 28 10 36 0 43 -7 4 2 5 20 2 28 -6 32 -4 32 15 0 11 3 21 6
21 3 0 3 -16 -1 -36z m-715 16 c0 -5 -7 -7 -15 -4 -8 4 -15 1 -15 -6 0 -6 -5
-8 -11 -4 -8 4 -7 9 2 15 19 12 39 11 39 -1z m700 0 c0 -5 -4 -10 -10 -10 -5
0 -10 5 -10 10 0 6 5 10 10 10 6 0 10 -4 10 -10z m-902 -30 c-1 -18 5 -19 27
-4 14 9 28 14 32 10 3 -3 13 0 21 7 13 10 15 9 10 -4 -3 -9 -2 -22 3 -30 7
-12 9 -11 9 2 0 21 44 30 67 14 9 -7 16 -26 16 -44 0 -22 3 -28 9 -19 6 8 7 3
3 -16 -5 -25 -4 -28 14 -23 11 3 21 1 23 -4 2 -5 9 1 17 13 13 21 13 22 -2 9
-10 -8 -17 -9 -17 -3 0 6 5 14 11 17 7 5 4 14 -8 28 -10 11 -12 17 -5 13 7 -4
12 -1 12 8 0 23 36 39 60 26 11 -6 20 -16 21 -23 0 -7 4 -2 9 11 7 17 16 22
37 20 16 -2 33 -10 40 -18 11 -13 12 -13 13 1 0 12 10 15 38 15 60 -2 74 -22
43 -60 -8 -9 -15 -27 -16 -40 -5 -40 -16 -67 -26 -61 -5 4 -9 0 -9 -7 0 -10
-2 -10 -9 1 -5 7 -14 10 -20 7 -6 -4 -11 -2 -11 3 0 6 5 11 10 11 6 0 10 5 10
12 0 6 -11 1 -24 -11 -13 -12 -34 -21 -47 -20 -48 4 -61 0 -55 -18 5 -15 4
-15 -9 1 -13 17 -15 18 -15 3 0 -23 -12 -21 -30 3 -9 12 -21 18 -32 14 -11 -3
-20 1 -24 11 -6 14 -7 14 -18 -1 -9 -12 -23 -15 -55 -11 -52 6 -89 -2 -69 -14
10 -7 9 -9 -4 -9 -10 0 -18 5 -18 10 0 6 -8 10 -17 11 -11 0 -13 3 -5 6 6 2
10 9 7 13 -3 5 -19 1 -35 -8 l-29 -17 22 -25 c12 -14 5 -9 -16 9 -20 19 -37
41 -37 49 0 7 -3 11 -8 8 -4 -2 -6 13 -4 34 2 21 -1 41 -7 44 -15 10 45 60 64
53 10 -4 12 -1 8 11 -6 14 -5 15 9 2 9 -8 16 -17 16 -20z m47 20 c-3 -5 -10
-10 -16 -10 -5 0 -9 5 -9 10 0 6 7 10 16 10 8 0 12 -4 9 -10z m255 0 c0 -5 -2
-10 -4 -10 -3 0 -8 5 -11 10 -3 6 -1 10 4 10 6 0 11 -4 11 -10z m-414 -27
c-10 -10 -19 5 -10 18 6 11 8 11 12 0 2 -7 1 -15 -2 -18z m694 13 c0 -3 -4 -8
-10 -11 -5 -3 -10 -1 -10 4 0 6 5 11 10 11 6 0 10 -2 10 -4z m270 -16 c0 -5
-2 -10 -4 -10 -3 0 -8 5 -11 10 -3 6 -1 10 4 10 6 0 11 -4 11 -10z m-643 -22
c-3 -8 -6 -5 -6 6 -1 11 2 17 5 13 3 -3 4 -12 1 -19z m973 10 c0 -7 -4 -19 -9
-27 -11 -17 -23 1 -15 23 7 19 24 21 24 4z m-1438 -23 c23 -30 16 -48 -27 -71
-33 -17 -66 -12 -35 6 37 21 53 38 46 48 -5 9 -15 8 -36 -3 -59 -31 -70 -11
-12 23 46 26 43 27 64 -3z m1238 0 c0 -2 -9 -3 -19 -2 -11 0 -18 5 -15 9 4 6
34 0 34 -7z m291 -12 c-12 -20 -14 -14 -5 12 4 9 9 14 11 11 3 -2 0 -13 -6
-23z m-1400 -6 c-10 -9 -11 -8 -5 6 3 10 9 15 12 12 3 -3 0 -11 -7 -18z m630
-30 c-10 -9 -11 -8 -5 6 3 10 9 15 12 12 3 -3 0 -11 -7 -18z m49 7 c0 -2 -7
-4 -15 -4 -8 0 -15 4 -15 10 0 5 7 7 15 4 8 -4 15 -8 15 -10z m700 -14 c-6
-11 -13 -20 -16 -20 -2 0 0 9 6 20 6 11 13 20 16 20 2 0 0 -9 -6 -20z m-137
-1 c34 -18 57 -41 51 -51 -3 -4 -18 1 -34 12 -15 11 -33 20 -39 20 -20 0 -11
-29 14 -46 26 -17 33 -34 14 -34 -19 0 -110 71 -103 81 3 5 12 5 23 0 13 -7
20 -5 29 10 14 22 16 23 45 8z m-553 -27 c-1 -18 -18 -32 -33 -26 -18 7 -20
14 -11 38 5 12 10 13 25 5 10 -5 19 -13 19 -17z m-60 -8 c0 -14 -4 -23 -9 -20
-5 3 -7 15 -4 26 7 28 13 25 13 -6z m-654 -14 c25 0 15 -14 -40 -58 -34 -26
-57 -38 -61 -31 -7 10 11 28 48 50 12 7 16 17 11 31 -5 17 -3 20 11 15 9 -4
23 -7 31 -7z m524 -30 c0 -5 -2 -10 -4 -10 -3 0 -8 5 -11 10 -3 6 -1 10 4 10
6 0 11 -4 11 -10z m173 3 c-7 -2 -21 -2 -30 0 -10 3 -4 5 12 5 17 0 24 -2 18
-5z m528 -24 c16 -11 29 -25 29 -30 0 -16 -23 -10 -47 13 -19 17 -26 19 -36 9
-9 -10 -6 -17 16 -36 24 -22 36 -45 21 -45 -9 0 -74 55 -74 62 0 14 34 48 48
48 8 0 27 -9 43 -21z m-1123 -42 c31 -32 34 -60 4 -35 -12 10 -21 5 -51 -30
-20 -23 -39 -42 -43 -42 -16 0 -7 24 22 57 32 36 36 48 20 58 -11 7 -4 25 9
25 4 0 22 -15 39 -33z m111 -4 c2 -2 0 -3 -6 -3 -6 0 -21 9 -34 21 l-24 20 30
-17 c17 -10 32 -19 34 -21z m885 16 c-3 -5 -10 -7 -15 -3 -5 3 -7 10 -3 15 3
5 10 7 15 3 5 -3 7 -10 3 -15z m-1244 -20 c0 -6 -4 -7 -10 -4 -5 3 -10 11 -10
16 0 6 5 7 10 4 6 -3 10 -11 10 -16z m1115 11 c-3 -5 -12 -10 -18 -10 -7 0 -6
4 3 10 19 12 23 12 15 0z m182 -32 c35 -34 41 -48 21 -48 -12 0 -68 62 -68 74
0 13 16 4 47 -26z m-862 -18 c3 -5 -4 -6 -15 -3 -11 3 -22 9 -25 13 -3 5 4 6
15 3 11 -3 22 -9 25 -13z m102 14 c-3 -3 -12 -4 -19 -1 -8 3 -5 6 6 6 11 1 17
-2 13 -5z m523 2 c0 -3 -4 -8 -10 -11 -5 -3 -10 -1 -10 4 0 6 5 11 10 11 6 0
10 -2 10 -4z m139 -42 c32 -44 33 -45 57 -29 37 24 51 7 18 -21 -16 -13 -34
-23 -39 -24 -16 0 -88 98 -80 110 9 14 8 15 44 -36z m-699 26 c0 -5 -5 -10
-11 -10 -5 0 -7 5 -4 10 3 6 8 10 11 10 2 0 4 -4 4 -10z m485 0 c-11 -5 -27
-9 -35 -9 -9 0 -8 4 5 9 11 5 27 9 35 9 9 0 8 -4 -5 -9z m35 -5 c0 -8 -72 -35
-94 -35 -12 0 -27 -5 -34 -12 -6 -6 -15 -9 -18 -5 -7 7 16 17 91 40 28 8 51
16 53 16 1 1 2 -1 2 -4z m-540 -15 c8 -5 11 -10 5 -10 -5 0 -17 5 -25 10 -8 5
-10 10 -5 10 6 0 17 -5 25 -10z m110 0 c-8 -5 -19 -10 -25 -10 -5 0 -3 5 5 10
8 5 20 10 25 10 6 0 3 -5 -5 -10z m-306 -6 c9 -3 16 -12 16 -20 0 -8 10 -14
24 -14 41 0 52 -25 30 -66 -24 -45 -26 -46 -58 -31 -16 7 -26 20 -26 33 0 26
16 34 55 27 19 -4 26 -2 21 6 -4 6 -14 11 -22 11 -9 0 -23 7 -32 16 -15 15
-18 14 -44 -14 -35 -40 -46 -24 -16 22 24 38 27 39 52 30z m76 -10 c0 -8 -4
-12 -10 -9 -5 3 -10 10 -10 16 0 5 5 9 10 9 6 0 10 -7 10 -16z m183 -1 c-7 -2
-21 -2 -30 0 -10 3 -4 5 12 5 17 0 24 -2 18 -5z m57 -13 c0 -5 -12 -10 -27 -9
l-28 1 25 8 c14 4 26 8 28 9 1 1 2 -3 2 -9z m47 -16 c-3 -3 -12 -4 -19 -1 -8
3 -5 6 6 6 11 1 17 -2 13 -5z m180 0 c-3 -3 -12 -4 -19 -1 -8 3 -5 6 6 6 11 1
17 -2 13 -5z m533 2 c0 -2 -8 -10 -17 -17 -16 -13 -17 -12 -4 4 13 16 21 21
21 13z m-858 -30 c29 -13 28 -26 -3 -26 -12 0 -22 -15 -34 -50 -9 -27 -21 -50
-26 -50 -13 0 -11 21 6 70 8 23 15 44 15 46 0 2 -7 4 -15 4 -8 0 -15 7 -15 16
0 16 13 14 72 -10z m508 15 c0 -6 -4 -13 -10 -16 -5 -3 -10 1 -10 9 0 9 5 16
10 16 6 0 10 -4 10 -9z m40 -16 c0 -14 6 -41 14 -60 14 -34 14 -34 -16 -50
-17 -8 -33 -15 -35 -15 -8 0 -43 66 -43 83 0 29 18 19 30 -18 6 -19 18 -35 26
-35 17 0 18 18 3 57 -7 18 -7 29 0 31 5 2 7 10 4 18 -3 8 0 14 6 14 6 0 11
-11 11 -25z m78 10 c-2 -5 -11 -9 -20 -8 -18 3 -23 -13 -12 -41 8 -20 34 -21
34 -1 0 15 12 20 23 9 13 -13 -14 -44 -38 -44 -41 0 -70 61 -43 88 15 15 60
12 56 -3z m-543 -36 c4 -6 4 -13 0 -17 -4 -4 -10 -2 -12 5 -2 7 -11 9 -19 6
-8 -3 -14 0 -14 6 0 14 37 14 45 0z m371 -29 c20 -60 -6 -99 -67 -100 -16 0
-20 8 -38 92 -9 43 -4 48 54 45 36 -2 41 -5 51 -37z m-376 -5 c8 -9 10 -28 5
-55 -6 -36 -10 -40 -35 -40 -15 0 -33 6 -39 14 -17 20 -3 46 24 46 13 0 27 5
30 10 4 6 -5 10 -19 10 -27 0 -35 15 -13 23 22 9 34 7 47 -8z m105 -25 c8 -24
-4 -90 -16 -90 -5 0 -9 20 -9 45 0 25 -5 45 -10 45 -11 0 -14 -7 -24 -52 -4
-16 -11 -28 -16 -28 -11 0 -13 43 -4 78 8 30 69 32 79 2z m115 -30 c0 -5 -11
-10 -25 -10 -14 0 -25 5 -25 10 0 6 11 10 25 10 14 0 25 -4 25 -10z"/>
<path d="M940 1795 c0 -9 9 -15 25 -15 16 0 25 6 25 15 0 9 -9 15 -25 15 -16
0 -25 -6 -25 -15z"/>
<path d="M1087 1776 c-4 -10 -5 -21 -2 -24 9 -9 17 6 13 25 -3 17 -4 17 -11
-1z"/>
<path d="M620 1687 c0 -19 16 -31 24 -18 3 5 -1 14 -9 21 -12 10 -15 10 -15
-3z"/>
<path d="M1361 1686 c-8 -10 -9 -16 -1 -21 5 -3 13 1 16 10 9 22 -1 29 -15 11z"/>
<path d="M840 1330 c0 -5 15 -10 33 -10 24 0 28 3 17 10 -20 13 -50 13 -50 0z"/>
<path d="M1216 1332 c-3 -6 -1 -14 5 -17 15 -10 25 3 12 16 -7 7 -13 7 -17 1z"/>
<path d="M1168 1323 c6 -2 18 -2 25 0 6 3 1 5 -13 5 -14 0 -19 -2 -12 -5z"/>
<path d="M1263 1313 c9 -2 23 -2 30 0 6 3 -1 5 -18 5 -16 0 -22 -2 -12 -5z"/>
<path d="M1398 1303 c7 -3 16 -2 19 1 4 3 -2 6 -13 5 -11 0 -14 -3 -6 -6z"/>
<path d="M880 1296 c0 -2 7 -9 15 -16 9 -7 15 -8 15 -2 0 5 -7 12 -15 16 -8 3
-15 4 -15 2z"/>
<path d="M1079 1288 c-7 -24 -5 -38 6 -38 8 0 16 8 18 18 4 15 5 14 6 -2 1
-20 1 -20 17 0 12 14 14 15 11 3 -5 -14 3 -16 41 -16 26 0 39 2 30 4 -10 2
-18 9 -18 15 0 6 -9 8 -20 5 -11 -3 -23 -1 -26 4 -4 8 -63 14 -65 7z"/>
<path d="M1070 1220 c0 -5 5 -10 11 -10 5 0 7 5 4 10 -3 6 -8 10 -11 10 -2 0
-4 -4 -4 -10z"/>
<path d="M1338 1203 c6 -2 18 -2 25 0 6 3 1 5 -13 5 -14 0 -19 -2 -12 -5z"/>
<path d="M1468 1203 c6 -2 18 -2 25 0 6 3 1 5 -13 5 -14 0 -19 -2 -12 -5z"/>
<path d="M820 1070 c-13 -8 -12 -10 3 -10 9 0 17 5 17 10 0 12 -1 12 -20 0z"/>
<path d="M392 1057 c-18 -21 -23 -72 -9 -91 12 -16 14 -16 32 5 15 17 16 21 4
17 -13 -5 -15 2 -15 38 1 24 0 44 0 44 -1 0 -6 -6 -12 -13z"/>
<path d="M511 1057 c9 -7 18 -19 22 -27 3 -9 6 -5 6 10 1 20 -4 26 -21 27 -20
2 -21 0 -7 -10z"/>
<path d="M600 1048 c0 -17 3 -19 9 -9 5 7 15 17 22 22 10 6 8 9 -8 9 -17 0
-23 -6 -23 -22z"/>
<path d="M703 940 c1 -79 -2 -132 -8 -134 -5 -3 4 -5 20 -5 23 -1 26 2 15 9
-13 8 -13 10 1 10 14 0 16 18 18 125 l2 125 -25 0 -25 0 2 -130z m34 38 c-2
-13 -4 -3 -4 22 0 25 2 35 4 23 2 -13 2 -33 0 -45z m0 -114 c-3 -3 -12 -4 -19
-1 -8 3 -5 6 6 6 11 1 17 -2 13 -5z"/>
<path d="M921 945 c1 -108 3 -124 15 -114 12 10 13 9 8 -4 -3 -9 -13 -18 -22
-20 -10 -3 3 -5 28 -5 25 0 41 1 35 4 -6 2 -9 54 -7 134 l3 130 -31 0 -31 0 2
-125z m46 43 c-2 -13 -4 -5 -4 17 -1 22 1 32 4 23 2 -10 2 -28 0 -40z m-4
-120 c8 -5 6 -8 -5 -8 -16 0 -18 9 -16 73 l2 72 3 -65 c2 -35 9 -68 16 -72z"/>
<path d="M1083 1063 c3 -5 7 -61 8 -126 1 -64 5 -121 8 -126 4 -6 16 -9 27 -9
19 2 21 7 16 48 -3 25 -9 48 -15 51 -5 4 -4 9 4 12 12 4 11 7 -1 16 -13 9 -12
11 5 12 11 0 15 3 10 5 -7 3 -9 27 -5 64 3 33 2 60 -2 60 -4 0 -8 -8 -9 -17 0
-15 -2 -15 -7 -3 -4 8 -15 16 -26 18 -10 2 -16 -1 -13 -5z m24 -165 c-2 -13
-4 -3 -4 22 0 25 2 35 4 23 2 -13 2 -33 0 -45z m23 -28 c0 -5 -8 -10 -17 -10
-15 0 -16 2 -3 10 19 12 20 12 20 0z"/>
<path d="M1263 941 c1 -80 -2 -133 -8 -135 -5 -3 9 -5 33 -5 40 -1 42 0 28 15
-18 17 -20 31 -7 36 6 2 5 35 -1 86 -8 60 -8 90 0 108 10 21 9 24 -9 24 -16 0
-20 -4 -15 -17 5 -16 4 -15 -9 1 -13 17 -14 5 -12 -113z m47 -71 c0 -5 -10
-10 -22 -9 -22 0 -22 1 -3 9 11 5 21 9 23 9 1 1 2 -3 2 -9z"/>
<path d="M1422 940 c2 -80 -1 -132 -7 -134 -5 -3 2 -5 16 -5 26 -1 39 14 39
45 0 8 -9 14 -20 14 -11 0 -20 4 -20 9 0 5 10 8 23 6 22 -4 22 -2 23 95 l1
100 -29 0 -29 0 3 -130z"/>
<path d="M420 965 c-16 -19 5 -49 29 -40 8 3 12 3 9 -1 -4 -3 7 -16 25 -28 35
-23 46 -58 26 -82 -10 -12 -9 -13 5 -8 9 3 16 17 16 33 0 18 3 22 9 13 6 -10
10 -9 14 7 3 12 1 21 -4 21 -5 0 -9 9 -9 20 0 13 -16 31 -47 50 -54 35 -56 35
-73 15z m102 -71 c-9 -16 -10 -14 -9 8 1 15 6 23 11 18 4 -4 4 -16 -2 -26z
m-22 16 c0 -5 -2 -10 -4 -10 -3 0 -8 5 -11 10 -3 6 -1 10 4 10 6 0 11 -4 11
-10z"/>
<path d="M370 830 c0 -20 5 -26 22 -27 13 -1 18 1 12 5 -6 4 -16 16 -22 27
-11 19 -11 19 -12 -5z"/>
<path d="M1597 824 c-27 -23 -27 -24 -5 -21 13 1 26 11 31 21 11 27 6 27 -26
0z"/>
<path d="M1736 783 c-8 -20 15 -37 26 -20 12 19 9 37 -6 37 -8 0 -17 -8 -20
-17z"/>
<path d="M1790 770 c-9 -16 -8 -22 6 -27 16 -6 36 14 31 31 -6 19 -26 17 -37
-4z"/>
<path d="M217 693 c-17 -17 -6 -34 20 -31 36 4 45 38 10 38 -13 0 -27 -3 -30
-7z"/>
<path d="M1216 594 c5 -21 4 -25 -6 -19 -9 5 -11 4 -6 -3 11 -19 39 -15 32 4
-3 9 -6 22 -6 30 0 8 -5 14 -10 14 -6 0 -8 -11 -4 -26z"/>
<path d="M1401 533 c-7 -8 -10 -17 -7 -20 9 -9 29 13 25 25 -2 6 -10 3 -18 -5z"/>
<path d="M846 615 c-3 -8 -1 -15 3 -15 5 0 11 7 15 15 3 8 1 15 -3 15 -5 0
-11 -7 -15 -15z"/>
<path d="M990 618 c0 -25 12 -58 21 -58 5 0 6 6 3 14 -3 8 -1 17 5 21 6 3 11
12 11 18 0 7 -8 3 -16 -8 -16 -20 -16 -20 -9 3 4 13 2 22 -4 22 -6 0 -11 -6
-11 -12z"/>
<path d="M686 596 c3 -8 12 -17 20 -20 9 -3 12 -10 9 -16 -3 -5 -1 -10 4 -10
16 0 13 12 -8 38 -22 25 -33 29 -25 8z"/>
<path d="M581 574 c0 -11 3 -14 6 -6 3 7 2 16 -1 19 -3 4 -6 -2 -5 -13z"/>
<path d="M575 259 c-10 -15 1 -23 20 -15 9 3 13 10 10 16 -8 13 -22 13 -30 -1z"/>
<path d="M1160 230 c0 -13 5 -18 15 -14 9 4 15 0 15 -10 0 -9 -4 -16 -10 -16
-5 0 -10 -7 -10 -16 0 -21 44 -15 48 7 1 8 -2 28 -7 42 -13 33 -51 38 -51 7z"/>
<path d="M815 169 c-4 -6 -5 -13 -2 -16 7 -7 27 6 27 18 0 12 -17 12 -25 -2z"/>
<path d="M1505 1770 c3 -5 8 -10 11 -10 2 0 4 5 4 10 0 6 -5 10 -11 10 -5 0
-7 -4 -4 -10z"/>
<path d="M355 1666 c-27 -25 -47 -47 -44 -51 4 -3 17 7 30 22 13 15 37 38 53
51 16 12 25 22 20 22 -5 0 -32 -20 -59 -44z"/>
<path d="M1655 1650 c10 -11 20 -18 23 -15 7 6 -18 35 -31 35 -5 0 -2 -9 8
-20z"/>
<path d="M1750 438 c-11 -12 -20 -26 -20 -32 0 -5 1 -7 3 -5 1 2 13 16 26 32
29 32 21 37 -9 5z"/>
<path d="M402 274 c10 -10 20 -16 22 -13 3 3 -5 11 -17 18 -21 13 -21 12 -5
-5z"/>
<path d="M1575 260 c-3 -6 1 -7 9 -4 18 7 21 14 7 14 -6 0 -13 -4 -16 -10z"/>
<path d="M435 240 c3 -5 8 -10 11 -10 2 0 4 5 4 10 0 6 -5 10 -11 10 -5 0 -7
-4 -4 -10z"/>
</g>
</svg>
